<svg xmlns="http://www.w3.org/2000/svg" viewBox="0 0 200 200" fill="currentColor">
  <!-- newrons logo: neuron/lightning pinwheel -->
  <g transform="translate(100,100)">
    <polygon points="0,-8 6,-38 2,-36 14,-72 0,-52 -4,-70 -2,-38 -8,-34 0,-8" transform="rotate(0)"/>
    <polygon points="0,-8 6,-38 2,-36 14,-72 0,-52 -4,-70 -2,-38 -8,-34 0,-8" transform="rotate(22.5)"/>
    <polygon points="0,-8 6,-38 2,-36 14,-72 0,-52 -4,-70 -2,-38 -8,-34 0,-8" transform="rotate(45)"/>
    <polygon points="0,-8 6,-38 2,-36 14,-72 0,-52 -4,-70 -2,-38 -8,-34 0,-8" transform="rotate(67.5)"/>
    <polygon points="0,-8 6,-38 2,-36 14,-72 0,-52 -4,-70 -2,-38 -8,-34 0,-8" transform="rotate(90)"/>
    <polygon points="0,-8 6,-38 2,-36 14,-72 0,-52 -4,-70 -2,-38 -8,-34 0,-8" transform="rotate(112.5)"/>
    <polygon points="0,-8 6,-38 2,-36 14,-72 0,-52 -4,-70 -2,-38 -8,-34 0,-8" transform="rotate(135)"/>
    <polygon points="0,-8 6,-38 2,-36 14,-72 0,-52 -4,-70 -2,-38 -8,-34 0,-8" transform="rotate(157.5)"/>
    <polygon points="0,-8 6,-38 2,-36 14,-72 0,-52 -4,-70 -2,-38 -8,-34 0,-8" transform="rotate(180)"/>
    <polygon points="0,-8 6,-38 2,-36 14,-72 0,-52 -4,-70 -2,-38 -8,-34 0,-8" transform="rotate(202.5)"/>
    <polygon points="0,-8 6,-38 2,-36 14,-72 0,-52 -4,-70 -2,-38 -8,-34 0,-8" transform="rotate(225)"/>
    <polygon points="0,-8 6,-38 2,-36 14,-72 0,-52 -4,-70 -2,-38 -8,-34 0,-8" transform="rotate(247.5)"/>
    <polygon points="0,-8 6,-38 2,-36 14,-72 0,-52 -4,-70 -2,-38 -8,-34 0,-8" transform="rotate(270)"/>
    <polygon points="0,-8 6,-38 2,-36 14,-72 0,-52 -4,-70 -2,-38 -8,-34 0,-8" transform="rotate(292.5)"/>
    <polygon points="0,-8 6,-38 2,-36 14,-72 0,-52 -4,-70 -2,-38 -8,-34 0,-8" transform="rotate(315)"/>
    <polygon points="0,-8 6,-38 2,-36 14,-72 0,-52 -4,-70 -2,-38 -8,-34 0,-8" transform="rotate(337.5)"/>
  </g>
</svg>
